<svg width="32" height="16" viewBox="0 0 32 16" fill="none" xmlns="http://www.w3.org/2000/svg">
<g id="Group">
<path id="Vector" d="M5.44523 0C5.29964 0.000540886 5.16018 0.0558307 5.05724 0.153822C4.95429 0.251814 4.89621 0.384564 4.89564 0.523144C4.89621 0.661724 4.95429 0.794474 5.05724 0.892466C5.16018 0.990457 5.29964 1.04575 5.44523 1.04629H20.6569V13.0109H13.7171C13.5247 11.7595 12.3979 10.786 11.0413 10.786C9.68477 10.786 8.55792 11.7595 8.36558 13.0109H5.99913V10.7347C5.99941 10.6654 5.98528 10.5967 5.95754 10.5326C5.92981 10.4685 5.88902 10.4103 5.83753 10.3613C5.78604 10.3123 5.72486 10.2734 5.65753 10.247C5.5902 10.2206 5.51804 10.2072 5.44523 10.2075C5.37277 10.2077 5.30108 10.2216 5.23425 10.2482C5.16741 10.2749 5.10675 10.3138 5.05572 10.3627C5.00468 10.4117 4.96428 10.4697 4.93681 10.5336C4.90935 10.5974 4.89536 10.6657 4.89564 10.7347V13.5381C4.89622 13.6767 4.95431 13.8095 5.05725 13.9075C5.1602 14.0054 5.29965 14.0607 5.44523 14.0613H8.42917C8.73799 15.1706 9.79171 16 11.0413 16C12.2909 16 13.3447 15.1706 13.6535 14.0613H21.2108H23.7185C24.0273 15.1706 25.081 16 26.3306 16C27.5802 16 28.6317 15.1706 28.9395 14.0613H31.4504C31.596 14.0607 31.7354 14.0054 31.8384 13.9075C31.9413 13.8095 31.9994 13.6767 32 13.5381V8.6606C32.0001 8.59312 31.9866 8.52625 31.9601 8.46365L29.8943 3.5902C29.8535 3.49346 29.7833 3.41048 29.6927 3.35184C29.6021 3.29321 29.4952 3.26156 29.3857 3.26093H21.7615V0.523144C21.7609 0.384391 21.7027 0.251495 21.5995 0.153477C21.4963 0.055459 21.3566 0.000283596 21.2108 0H5.44523ZM3.04213 3.32248C2.96967 3.32274 2.89798 3.3366 2.83115 3.36324C2.76432 3.38988 2.70365 3.42879 2.65262 3.47775C2.60158 3.52671 2.56118 3.58476 2.53371 3.64858C2.50625 3.71241 2.49226 3.78076 2.49254 3.84972C2.49311 3.9883 2.5512 4.12105 2.65414 4.21904C2.75708 4.31703 2.89654 4.37232 3.04213 4.37286H11.3668C11.4392 4.37314 11.511 4.35982 11.5781 4.33367C11.6451 4.30753 11.7061 4.26907 11.7575 4.22049C11.809 4.17191 11.8498 4.11417 11.8778 4.05055C11.9058 3.98694 11.9204 3.91869 11.9207 3.84972C11.9209 3.78041 11.9068 3.71173 11.8791 3.64763C11.8513 3.58354 11.8106 3.52531 11.7591 3.4763C11.7076 3.42728 11.6464 3.38846 11.5791 3.36206C11.5117 3.33566 11.4396 3.3222 11.3668 3.32248H3.04213ZM21.7615 4.31132H29.0107L30.6314 8.13745H21.7615V4.31132ZM0.5539 6.67163C0.481354 6.67136 0.409463 6.68471 0.342344 6.71091C0.275225 6.73712 0.214195 6.77567 0.162746 6.82436C0.111298 6.87305 0.070441 6.93091 0.0425149 6.99465C0.0145888 7.05838 0.000141611 7.12674 0 7.19579C0.000282195 7.26476 0.0148331 7.333 0.042822 7.39662C0.070811 7.46024 0.11169 7.51799 0.163124 7.56656C0.214559 7.61514 0.275542 7.6536 0.342591 7.67975C0.409641 7.70589 0.481444 7.71921 0.5539 7.71894H11.3668C11.4392 7.71921 11.511 7.70589 11.5781 7.67975C11.6451 7.6536 11.7061 7.61514 11.7575 7.56656C11.809 7.51799 11.8498 7.46024 11.8778 7.39662C11.9058 7.333 11.9204 7.26476 11.9207 7.19579C11.9205 7.12674 11.9061 7.05838 11.8781 6.99465C11.8502 6.93091 11.8094 6.87305 11.7579 6.82436C11.7065 6.77567 11.6454 6.73712 11.5783 6.71091C11.5112 6.68471 11.4393 6.67136 11.3668 6.67163H0.5539ZM21.7615 9.18784H30.8965V13.0109H29.0021C28.8103 11.7596 27.6872 10.786 26.3306 10.786C24.9741 10.786 23.8483 11.7596 23.656 13.0109H21.7615V9.18784ZM11.0004 11.8364C11.0141 11.8361 11.0275 11.8364 11.0413 11.8364C11.9266 11.8364 12.6416 12.5206 12.6416 13.3904C12.6416 14.2602 11.9266 14.9496 11.0413 14.9496C10.1561 14.9496 9.44105 14.2602 9.44105 13.3904C9.44105 12.5342 10.1343 11.8573 11.0004 11.8364ZM26.2897 11.8364C26.3034 11.8361 26.3168 11.8364 26.3306 11.8364C27.2159 11.8364 27.932 12.5206 27.932 13.3904C27.932 14.2602 27.2159 14.9496 26.3306 14.9496C25.4454 14.9496 24.7304 14.2602 24.7304 13.3904C24.7304 12.5342 25.4236 11.8573 26.2897 11.8364Z" fill="#FF2DA4"/>
</g>
</svg>
